0
SECTION
2
HEADER
9
$ACADVER
1
AC1015
9
$INSUNITS
70
4
9
$MEASUREMENT
70
1
0
ENDSEC
0
SECTION
2
TABLES
0
TABLE
2
LAYER
70
5
0
LAYER
2
0
70
0
62
7
6
CONTINUOUS
0
LAYER
2
ALUM_PROFILE
70
0
62
5
6
CONTINUOUS
0
LAYER
2
GLASS_UNIT
70
0
62
4
6
CONTINUOUS
0
LAYER
2
THERMAL_BREAK
70
0
62
1
6
CONTINUOUS
0
LAYER
2
DIMENSIONS
70
0
62
7
6
CONTINUOUS
0
ENDTAB
0
ENDSEC
0
SECTION
2
ENTITIES
0
LWPOLYLINE
8
ALUM_PROFILE
90
4
70
1
43
0.0
10
0.0
20
0.0
10
45.00
20
0.0
10
45.00
20
52.00
10
0.0
20
52.00
0
LWPOLYLINE
8
ALUM_PROFILE
90
4
70
1
43
0.0
10
2.00
20
2.00
10
43.00
20
2.00
10
43.00
20
50.00
10
2.00
20
50.00
0
LWPOLYLINE
8
GLASS_UNIT
90
4
70
1
43
0.0
10
31.00
20
52.00
10
39.00
20
52.00
10
39.00
20
172.00
10
31.00
20
172.00
0
TEXT
8
DIMENSIONS
10
22.50
20
-15.0
40
8.0
1
WA 45 - 45mm x 52mm
0
ENDSEC
0
EOF
