0
SECTION
2
HEADER
9
$ACADVER
1
AC1015
9
$INSUNITS
70
4
9
$MEASUREMENT
70
1
0
ENDSEC
0
SECTION
2
TABLES
0
TABLE
2
LAYER
70
3
0
LAYER
2
0
70
0
62
7
6
CONTINUOUS
0
LAYER
2
BIM_ALUM_EXTRUSION_3D
70
0
62
5
6
CONTINUOUS
0
LAYER
2
BIM_VOID_CHAMBER_3D
70
0
62
1
6
CONTINUOUS
0
ENDTAB
0
ENDSEC
0
SECTION
2
ENTITIES
0
3DFACE
8
BIM_ALUM_EXTRUSION_3D
10
0.00
20
0.00
30
0.00
11
130.00
20
0.00
30
0.00
12
130.00
20
0.00
30
1000.00
13
0.00
20
0.00
30
1000.00
0
3DFACE
8
BIM_ALUM_EXTRUSION_3D
10
130.00
20
0.00
30
0.00
11
130.00
20
55.00
30
0.00
12
130.00
20
55.00
30
1000.00
13
130.00
20
0.00
30
1000.00
0
3DFACE
8
BIM_ALUM_EXTRUSION_3D
10
130.00
20
55.00
30
0.00
11
0.00
20
55.00
30
0.00
12
0.00
20
55.00
30
1000.00
13
130.00
20
55.00
30
1000.00
0
3DFACE
8
BIM_ALUM_EXTRUSION_3D
10
0.00
20
55.00
30
0.00
11
0.00
20
0.00
30
0.00
12
0.00
20
0.00
30
1000.00
13
0.00
20
55.00
30
1000.00
0
3DFACE
8
BIM_VOID_CHAMBER_3D
10
2.50
20
2.50
30
0.00
11
127.50
20
2.50
30
0.00
12
127.50
20
2.50
30
1000.00
13
2.50
20
2.50
30
1000.00
0
3DFACE
8
BIM_VOID_CHAMBER_3D
10
127.50
20
2.50
30
0.00
11
127.50
20
52.50
30
0.00
12
127.50
20
52.50
30
1000.00
13
127.50
20
2.50
30
1000.00
0
3DFACE
8
BIM_VOID_CHAMBER_3D
10
127.50
20
52.50
30
0.00
11
2.50
20
52.50
30
0.00
12
2.50
20
52.50
30
1000.00
13
127.50
20
52.50
30
1000.00
0
3DFACE
8
BIM_VOID_CHAMBER_3D
10
2.50
20
52.50
30
0.00
11
2.50
20
2.50
30
0.00
12
2.50
20
2.50
30
1000.00
13
2.50
20
52.50
30
1000.00
0
3DFACE
8
BIM_ALUM_EXTRUSION_3D
10
0.00
20
0.00
30
0.00
11
130.00
20
0.00
30
0.00
12
127.50
20
2.50
30
0.00
13
2.50
20
2.50
30
0.00
0
3DFACE
8
BIM_ALUM_EXTRUSION_3D
10
130.00
20
0.00
30
0.00
11
130.00
20
55.00
30
0.00
12
127.50
20
52.50
30
0.00
13
127.50
20
2.50
30
0.00
0
3DFACE
8
BIM_ALUM_EXTRUSION_3D
10
130.00
20
55.00
30
0.00
11
0.00
20
55.00
30
0.00
12
2.50
20
52.50
30
0.00
13
127.50
20
52.50
30
0.00
0
3DFACE
8
BIM_ALUM_EXTRUSION_3D
10
0.00
20
55.00
30
0.00
11
0.00
20
0.00
30
0.00
12
2.50
20
2.50
30
0.00
13
2.50
20
52.50
30
0.00
0
3DFACE
8
BIM_ALUM_EXTRUSION_3D
10
0.00
20
0.00
30
1000.00
11
130.00
20
0.00
30
1000.00
12
127.50
20
2.50
30
1000.00
13
2.50
20
2.50
30
1000.00
0
3DFACE
8
BIM_ALUM_EXTRUSION_3D
10
130.00
20
0.00
30
1000.00
11
130.00
20
55.00
30
1000.00
12
127.50
20
52.50
30
1000.00
13
127.50
20
2.50
30
1000.00
0
3DFACE
8
BIM_ALUM_EXTRUSION_3D
10
130.00
20
55.00
30
1000.00
11
0.00
20
55.00
30
1000.00
12
2.50
20
52.50
30
1000.00
13
127.50
20
52.50
30
1000.00
0
3DFACE
8
BIM_ALUM_EXTRUSION_3D
10
0.00
20
55.00
30
1000.00
11
0.00
20
0.00
30
1000.00
12
2.50
20
2.50
30
1000.00
13
2.50
20
52.50
30
1000.00
0
ENDSEC
0
EOF
