0
SECTION
2
HEADER
9
$ACADVER
1
AC1015
9
$INSUNITS
70
4
9
$MEASUREMENT
70
1
0
ENDSEC
0
SECTION
2
TABLES
0
TABLE
2
LAYER
70
3
0
LAYER
2
0
70
0
62
7
6
CONTINUOUS
0
LAYER
2
BIM_ALUM_EXTRUSION_3D
70
0
62
5
6
CONTINUOUS
0
LAYER
2
BIM_VOID_CHAMBER_3D
70
0
62
1
6
CONTINUOUS
0
ENDTAB
0
ENDSEC
0
SECTION
2
ENTITIES
0
3DFACE
8
BIM_ALUM_EXTRUSION_3D
10
0.00
20
0.00
30
0.00
11
65.00
20
0.00
30
0.00
12
65.00
20
0.00
30
1000.00
13
0.00
20
0.00
30
1000.00
0
3DFACE
8
BIM_ALUM_EXTRUSION_3D
10
65.00
20
0.00
30
0.00
11
65.00
20
140.00
30
0.00
12
65.00
20
140.00
30
1000.00
13
65.00
20
0.00
30
1000.00
0
3DFACE
8
BIM_ALUM_EXTRUSION_3D
10
65.00
20
140.00
30
0.00
11
0.00
20
140.00
30
0.00
12
0.00
20
140.00
30
1000.00
13
65.00
20
140.00
30
1000.00
0
3DFACE
8
BIM_ALUM_EXTRUSION_3D
10
0.00
20
140.00
30
0.00
11
0.00
20
0.00
30
0.00
12
0.00
20
0.00
30
1000.00
13
0.00
20
140.00
30
1000.00
0
3DFACE
8
BIM_VOID_CHAMBER_3D
10
3.00
20
3.00
30
0.00
11
62.00
20
3.00
30
0.00
12
62.00
20
3.00
30
1000.00
13
3.00
20
3.00
30
1000.00
0
3DFACE
8
BIM_VOID_CHAMBER_3D
10
62.00
20
3.00
30
0.00
11
62.00
20
137.00
30
0.00
12
62.00
20
137.00
30
1000.00
13
62.00
20
3.00
30
1000.00
0
3DFACE
8
BIM_VOID_CHAMBER_3D
10
62.00
20
137.00
30
0.00
11
3.00
20
137.00
30
0.00
12
3.00
20
137.00
30
1000.00
13
62.00
20
137.00
30
1000.00
0
3DFACE
8
BIM_VOID_CHAMBER_3D
10
3.00
20
137.00
30
0.00
11
3.00
20
3.00
30
0.00
12
3.00
20
3.00
30
1000.00
13
3.00
20
137.00
30
1000.00
0
3DFACE
8
BIM_ALUM_EXTRUSION_3D
10
0.00
20
0.00
30
0.00
11
65.00
20
0.00
30
0.00
12
62.00
20
3.00
30
0.00
13
3.00
20
3.00
30
0.00
0
3DFACE
8
BIM_ALUM_EXTRUSION_3D
10
65.00
20
0.00
30
0.00
11
65.00
20
140.00
30
0.00
12
62.00
20
137.00
30
0.00
13
62.00
20
3.00
30
0.00
0
3DFACE
8
BIM_ALUM_EXTRUSION_3D
10
65.00
20
140.00
30
0.00
11
0.00
20
140.00
30
0.00
12
3.00
20
137.00
30
0.00
13
62.00
20
137.00
30
0.00
0
3DFACE
8
BIM_ALUM_EXTRUSION_3D
10
0.00
20
140.00
30
0.00
11
0.00
20
0.00
30
0.00
12
3.00
20
3.00
30
0.00
13
3.00
20
137.00
30
0.00
0
3DFACE
8
BIM_ALUM_EXTRUSION_3D
10
0.00
20
0.00
30
1000.00
11
65.00
20
0.00
30
1000.00
12
62.00
20
3.00
30
1000.00
13
3.00
20
3.00
30
1000.00
0
3DFACE
8
BIM_ALUM_EXTRUSION_3D
10
65.00
20
0.00
30
1000.00
11
65.00
20
140.00
30
1000.00
12
62.00
20
137.00
30
1000.00
13
62.00
20
3.00
30
1000.00
0
3DFACE
8
BIM_ALUM_EXTRUSION_3D
10
65.00
20
140.00
30
1000.00
11
0.00
20
140.00
30
1000.00
12
3.00
20
137.00
30
1000.00
13
62.00
20
137.00
30
1000.00
0
3DFACE
8
BIM_ALUM_EXTRUSION_3D
10
0.00
20
140.00
30
1000.00
11
0.00
20
0.00
30
1000.00
12
3.00
20
3.00
30
1000.00
13
3.00
20
137.00
30
1000.00
0
ENDSEC
0
EOF
