0
SECTION
2
HEADER
9
$ACADVER
1
AC1015
9
$INSUNITS
70
4
9
$MEASUREMENT
70
1
0
ENDSEC
0
SECTION
2
TABLES
0
TABLE
2
LAYER
70
3
0
LAYER
2
0
70
0
62
7
6
CONTINUOUS
0
LAYER
2
BIM_ALUM_EXTRUSION_3D
70
0
62
5
6
CONTINUOUS
0
LAYER
2
BIM_VOID_CHAMBER_3D
70
0
62
1
6
CONTINUOUS
0
ENDTAB
0
ENDSEC
0
SECTION
2
ENTITIES
0
3DFACE
8
BIM_ALUM_EXTRUSION_3D
10
0.00
20
0.00
30
0.00
11
63.00
20
0.00
30
0.00
12
63.00
20
0.00
30
1000.00
13
0.00
20
0.00
30
1000.00
0
3DFACE
8
BIM_ALUM_EXTRUSION_3D
10
63.00
20
0.00
30
0.00
11
63.00
20
71.00
30
0.00
12
63.00
20
71.00
30
1000.00
13
63.00
20
0.00
30
1000.00
0
3DFACE
8
BIM_ALUM_EXTRUSION_3D
10
63.00
20
71.00
30
0.00
11
0.00
20
71.00
30
0.00
12
0.00
20
71.00
30
1000.00
13
63.00
20
71.00
30
1000.00
0
3DFACE
8
BIM_ALUM_EXTRUSION_3D
10
0.00
20
71.00
30
0.00
11
0.00
20
0.00
30
0.00
12
0.00
20
0.00
30
1000.00
13
0.00
20
71.00
30
1000.00
0
3DFACE
8
BIM_VOID_CHAMBER_3D
10
2.00
20
2.00
30
0.00
11
61.00
20
2.00
30
0.00
12
61.00
20
2.00
30
1000.00
13
2.00
20
2.00
30
1000.00
0
3DFACE
8
BIM_VOID_CHAMBER_3D
10
61.00
20
2.00
30
0.00
11
61.00
20
69.00
30
0.00
12
61.00
20
69.00
30
1000.00
13
61.00
20
2.00
30
1000.00
0
3DFACE
8
BIM_VOID_CHAMBER_3D
10
61.00
20
69.00
30
0.00
11
2.00
20
69.00
30
0.00
12
2.00
20
69.00
30
1000.00
13
61.00
20
69.00
30
1000.00
0
3DFACE
8
BIM_VOID_CHAMBER_3D
10
2.00
20
69.00
30
0.00
11
2.00
20
2.00
30
0.00
12
2.00
20
2.00
30
1000.00
13
2.00
20
69.00
30
1000.00
0
3DFACE
8
BIM_ALUM_EXTRUSION_3D
10
0.00
20
0.00
30
0.00
11
63.00
20
0.00
30
0.00
12
61.00
20
2.00
30
0.00
13
2.00
20
2.00
30
0.00
0
3DFACE
8
BIM_ALUM_EXTRUSION_3D
10
63.00
20
0.00
30
0.00
11
63.00
20
71.00
30
0.00
12
61.00
20
69.00
30
0.00
13
61.00
20
2.00
30
0.00
0
3DFACE
8
BIM_ALUM_EXTRUSION_3D
10
63.00
20
71.00
30
0.00
11
0.00
20
71.00
30
0.00
12
2.00
20
69.00
30
0.00
13
61.00
20
69.00
30
0.00
0
3DFACE
8
BIM_ALUM_EXTRUSION_3D
10
0.00
20
71.00
30
0.00
11
0.00
20
0.00
30
0.00
12
2.00
20
2.00
30
0.00
13
2.00
20
69.00
30
0.00
0
3DFACE
8
BIM_ALUM_EXTRUSION_3D
10
0.00
20
0.00
30
1000.00
11
63.00
20
0.00
30
1000.00
12
61.00
20
2.00
30
1000.00
13
2.00
20
2.00
30
1000.00
0
3DFACE
8
BIM_ALUM_EXTRUSION_3D
10
63.00
20
0.00
30
1000.00
11
63.00
20
71.00
30
1000.00
12
61.00
20
69.00
30
1000.00
13
61.00
20
2.00
30
1000.00
0
3DFACE
8
BIM_ALUM_EXTRUSION_3D
10
63.00
20
71.00
30
1000.00
11
0.00
20
71.00
30
1000.00
12
2.00
20
69.00
30
1000.00
13
61.00
20
69.00
30
1000.00
0
3DFACE
8
BIM_ALUM_EXTRUSION_3D
10
0.00
20
71.00
30
1000.00
11
0.00
20
0.00
30
1000.00
12
2.00
20
2.00
30
1000.00
13
2.00
20
69.00
30
1000.00
0
ENDSEC
0
EOF
